<?xml version="1.0" standalone="no"?>
<!DOCTYPE svg PUBLIC "-//W3C//DTD SVG 20010904//EN"
 "http://www.w3.org/TR/2001/REC-SVG-20010904/DTD/svg10.dtd">
<svg version="1.0" xmlns="http://www.w3.org/2000/svg"
 width="700.000000pt" height="700.000000pt" viewBox="0 0 700.000000 700.000000"
 preserveAspectRatio="xMidYMid meet">
<metadata>
Created by potrace 1.14, written by Peter Selinger 2001-2017
</metadata>
<g transform="translate(0.000000,700.000000) scale(0.100000,-0.100000)"
fill="#000000" stroke="none">
<path d="M3725 6769 c-963 -99 -1903 -703 -2509 -1614 -365 -548 -586 -1145
-662 -1790 -23 -193 -23 -601 0 -785 74 -600 291 -1118 637 -1525 l94 -110 7
40 c4 22 16 113 28 202 66 504 243 958 499 1278 174 218 473 483 871 772 91
66 368 258 615 428 630 432 754 518 970 680 330 247 573 469 706 645 129 169
227 458 260 765 21 202 -7 683 -43 707 -7 5 -76 40 -153 78 -218 107 -440 176
-695 215 -125 20 -494 28 -625 14z"/>
<path d="M5657 5919 c-11 -298 -45 -512 -117 -729 -91 -274 -192 -439 -395
-649 -247 -256 -622 -546 -1350 -1046 -879 -604 -1231 -872 -1516 -1155 -174
-173 -220 -233 -308 -400 -180 -345 -271 -737 -271 -1174 l0 -162 65 -43 c156
-102 431 -216 659 -272 209 -51 326 -63 591 -63 258 0 374 12 595 60 873 194
1685 793 2228 1644 563 883 763 1957 538 2885 -112 462 -337 891 -628 1200
l-85 89 -6 -185z"/>
</g>
</svg>
